<?xml version="1.0" encoding="UTF-8" standalone="no"?>
<!-- Created with Inkscape (http://www.inkscape.org/) -->

<svg
   width="151.69141"
   height="147.55467"
   viewBox="0 0 50 48.636464"
   version="1.1"
   id="svg5"
   sodipodi:docname="clock.svg"
   inkscape:version="1.2.1 (9c6d41e410, 2022-07-14)"
   xmlns:inkscape="http://www.inkscape.org/namespaces/inkscape"
   xmlns:sodipodi="http://sodipodi.sourceforge.net/DTD/sodipodi-0.dtd"
   xmlns="http://www.w3.org/2000/svg"
   xmlns:svg="http://www.w3.org/2000/svg">
  <sodipodi:namedview
     id="namedview7"
     pagecolor="#505050"
     bordercolor="#eeeeee"
     borderopacity="1"
     inkscape:showpageshadow="0"
     inkscape:pageopacity="0"
     inkscape:pagecheckerboard="false"
     inkscape:deskcolor="#505050"
     inkscape:document-units="px"
     showgrid="false"
     inkscape:zoom="2.9006172"
     inkscape:cx="-18.961482"
     inkscape:cy="130.14471"
     inkscape:window-width="1920"
     inkscape:window-height="1001"
     inkscape:window-x="-9"
     inkscape:window-y="-9"
     inkscape:window-maximized="1"
     inkscape:current-layer="layer1" />
  <defs
     id="defs2" />
  <g
     inkscape:label="Calque 1"
     inkscape:groupmode="layer"
     id="layer1"
     transform="translate(-70.054122,-82.824402)">
    <rect
       style="fill:#89daff;fill-opacity:1;stroke-width:0.16481016;stroke-dasharray:none;stroke:#000000;stroke-opacity:1"
       id="minute"
       width="1.6188042"
       height="9.9181652"
       x="93.801338"
       y="97.879112"
       ry="0.82651371"
       inkscape:transform-center-x="-0.027171017"
       inkscape:transform-center-y="-5.0393316"
       transform="matrix(0.99994076,-0.01088485,0.00413808,0.99999144,0,0)"
       onfocusin="onFocus" />
    <rect
       style="fill:#89daff;fill-opacity:1;stroke-width:0.16480828;stroke-dasharray:none;stroke:#000000;stroke-opacity:1"
       id="hour"
       width="1.6187447"
       height="6.1152582"
       x="-140.66005"
       y="23.228664"
       ry="0.50960481"
       inkscape:transform-center-x="2.7202588"
       inkscape:transform-center-y="1.5015939"
       transform="rotate(-119.78454)" />
    <g
       id="clock"
       style="fill:#89daff;fill-opacity:1"
       transform="translate(4.9090601,4.4181541)">
      <path
         id="path110"
         style="fill:#89daff;fill-opacity:1;stroke-width:0.32961656;stroke-dasharray:none;stroke:#000000;stroke-opacity:1"
         d="M 90.121631,82.824402 A 20.067568,19.520269 0 0 0 70.054122,102.34466 20.067568,19.520269 0 0 0 90.121631,121.86491 20.067568,19.520269 0 0 0 110.18914,102.34466 20.067568,19.520269 0 0 0 90.121631,82.824402 Z m 0.720886,2.75332 a 16.783783,16.783783 0 0 1 10.655163,4.426087 c -0.13189,0.06635 -0.26084,0.158521 -0.37775,0.275435 l -1.543579,1.543575 c -0.427623,0.427623 -0.527488,1.016605 -0.223759,1.320333 0.303728,0.303728 0.892708,0.203864 1.320328,-0.223759 l 1.54358,-1.543575 c 0.11642,-0.116425 0.20811,-0.244894 0.2744,-0.376205 a 16.783783,16.783783 0 0 1 4.39922,10.661367 c -0.13466,-0.042 -0.28328,-0.0656 -0.44029,-0.0656 h -2.18333 c -0.60475,0 -1.0914,0.34613 -1.0914,0.77566 0,0.42954 0.48665,0.77515 1.0914,0.77515 h 2.18333 c 0.15119,0 0.29461,-0.0219 0.4253,-0.061 a 16.783783,16.783783 0 0 1 -4.40645,10.62778 c -0.0645,-0.11844 -0.14977,-0.23349 -0.25528,-0.339 l -1.54409,-1.54409 c -0.42763,-0.42763 -1.016091,-0.52697 -1.319819,-0.22325 -0.303728,0.30373 -0.204381,0.8922 0.223242,1.31982 l 1.544097,1.54409 c 0.10442,0.10443 0.21822,0.189 0.33538,0.25322 a 16.783783,16.783783 0 0 1 -10.607109,4.37441 c 0.03352,-0.12233 0.05168,-0.25544 0.05168,-0.39481 v -2.18281 c 0,-0.60475 -0.34561,-1.09193 -0.775146,-1.09193 -0.429537,0 -0.775147,0.48718 -0.775147,1.09193 v 2.18281 c 0,0.13937 0.01815,0.27248 0.05168,0.39481 a 16.783783,16.783783 0 0 1 -10.595736,-4.36459 c 0.08677,-0.0507 0.170472,-0.11415 0.247013,-0.19069 l 1.382345,-1.38235 c 0.382957,-0.38295 0.446872,-0.93598 0.143144,-1.23971 -0.303729,-0.30373 -0.856761,-0.23982 -1.239718,0.14314 l -1.382344,1.38235 c -0.07755,0.0776 -0.141781,0.1621 -0.192754,0.25011 A 16.783783,16.783783 0 0 1 73.369165,103.1043 c 0.09942,0.0269 0.206113,0.0419 0.317293,0.0419 h 1.95492 c 0.541583,0 0.977718,-0.34561 0.977718,-0.77515 0,-0.42953 -0.436135,-0.77566 -0.977718,-0.77566 h -1.95492 c -0.111945,0 -0.219354,0.0151 -0.31936,0.0424 a 16.783783,16.783783 0 0 1 4.370793,-10.618986 c 0.05361,0.100288 0.123815,0.196679 0.211356,0.28422 l 1.382862,1.382861 c 0.382957,0.382958 0.935472,0.446356 1.2392,0.142627 0.303729,-0.303728 0.240331,-0.856243 -0.142627,-1.2392 L 79.045821,90.20638 c -0.08869,-0.08869 -0.186649,-0.159572 -0.288354,-0.213423 a 16.783783,16.783783 0 0 1 10.63966,-4.402316 c -0.03271,0.108399 -0.05064,0.226112 -0.05064,0.349333 v 1.955436 c 0,0.541583 0.34561,0.977202 0.775147,0.977202 0.429536,0 0.775146,-0.435619 0.775146,-0.977202 v -1.955436 c 0,-0.128093 -0.01904,-0.250343 -0.05426,-0.362252 z"
         inkscape:highlight-color="#030e21" />
      <circle
         style="fill:#89daff;fill-opacity:1;stroke-width:0.16480828;stroke-dasharray:none;stroke:#000000;stroke-opacity:1"
         id="path325"
         cx="90.121628"
         cy="102.34466"
         r="1.5308347" />
    </g>
  </g>
</svg>
