<?xml version="1.0" encoding="UTF-8" standalone="no"?>
<!-- Created with Inkscape (http://www.inkscape.org/) -->

<svg
   width="375.50531"
   height="374.95123"
   viewBox="0 0 99.352448 99.205847"
   version="1.1"
   id="svg5"
   inkscape:version="1.2.1 (9c6d41e410, 2022-07-14)"
   sodipodi:docname="contrat.svg"
   xmlns:inkscape="http://www.inkscape.org/namespaces/inkscape"
   xmlns:sodipodi="http://sodipodi.sourceforge.net/DTD/sodipodi-0.dtd"
   xmlns="http://www.w3.org/2000/svg"
   xmlns:svg="http://www.w3.org/2000/svg">
  <sodipodi:namedview
     id="namedview7"
     pagecolor="#505050"
     bordercolor="#eeeeee"
     borderopacity="1"
     inkscape:showpageshadow="0"
     inkscape:pageopacity="0"
     inkscape:pagecheckerboard="0"
     inkscape:deskcolor="#505050"
     inkscape:document-units="px"
     showgrid="false"
     inkscape:zoom="1.0255231"
     inkscape:cx="-156.99305"
     inkscape:cy="260.84249"
     inkscape:window-width="1920"
     inkscape:window-height="1001"
     inkscape:window-x="-9"
     inkscape:window-y="-9"
     inkscape:window-maximized="1"
     inkscape:current-layer="layer1" />
  <defs
     id="defs2">
    <inkscape:path-effect
       effect="fillet_chamfer"
       id="path-effect893"
       is_visible="true"
       lpeversion="1"
       nodesatellites_param="F,0,0,1,0,0,0,1 @ F,0,0,1,0,2.1950524,0,1 @ F,0,0,1,0,3.1775871,0,1 @ F,0,0,1,0,0,0,1"
       unit="px"
       method="auto"
       mode="F"
       radius="0"
       chamfer_steps="1"
       flexible="false"
       use_knot_distance="true"
       apply_no_radius="true"
       apply_with_radius="true"
       only_selected="false"
       hide_knots="false" />
    <inkscape:path-effect
       effect="fillet_chamfer"
       id="path-effect608"
       is_visible="true"
       lpeversion="1"
       nodesatellites_param="F,0,0,1,0,5.1134137,0,1 @ F,0,0,1,0,2.4363156,0,1 @ F,0,0,1,0,3.7957791,0,1 @ F,0,0,1,0,5.2130829,0,1 @ F,0,0,1,0,1.3737768,0,1 @ F,0,0,1,0,3.6070809,0,1"
       unit="px"
       method="auto"
       mode="F"
       radius="0"
       chamfer_steps="1"
       flexible="false"
       use_knot_distance="true"
       apply_no_radius="true"
       apply_with_radius="true"
       only_selected="false"
       hide_knots="false" />
  </defs>
  <g
     inkscape:label="Calque 1"
     inkscape:groupmode="layer"
     id="layer1"
     transform="translate(-57.393384,-96.051537)">
    <rect
       style="fill:#89daff;fill-opacity:0;stroke:#89daff;stroke-width:3.99997086;stroke-dasharray:none;stroke-opacity:1"
       id="rect448"
       width="94.907906"
       height="98.886688"
       x="57.626263"
       y="96.284416" />
    <rect
       style="fill:#89daff;fill-opacity:1;stroke-width:0.188066"
       id="rect502"
       width="51.469288"
       height="4.2380004"
       x="79.345573"
       y="103.63028"
       ry="2.1190002" />
    <rect
       style="fill:#89daff;fill-opacity:1;stroke-width:0.168658"
       id="rect504"
       width="68.990746"
       height="2.5428002"
       x="70.584839"
       y="116.90936"
       ry="1.2714001" />
    <rect
       style="fill:#89daff;fill-opacity:1;stroke-width:0.168658"
       id="rect537"
       width="68.990746"
       height="2.5428002"
       x="70.584839"
       y="129.34082"
       ry="1.2714001" />
    <rect
       style="fill:#89daff;fill-opacity:1;stroke-width:0.168658"
       id="rect539"
       width="68.990746"
       height="2.5428002"
       x="70.584839"
       y="139.51202"
       ry="1.2714001" />
    <rect
       style="fill:#89daff;fill-opacity:1;stroke-width:0.168658"
       id="rect541"
       width="68.990746"
       height="2.5428002"
       x="70.584839"
       y="151.94351"
       ry="1.2714001" />
    <rect
       style="fill:#89daff;fill-opacity:1;stroke-width:0.168658"
       id="rect543"
       width="68.990746"
       height="2.5428002"
       x="70.584839"
       y="163.24484"
       ry="1.2714001" />
    <path
       style="fill:#89daff;fill-opacity:1;stroke-width:0.232878"
       d="m 75.146586,178.75156 c 5.11428,1.12462 10.404277,2.19823 15.826458,3.23348 1.321649,0.25234 3.4654,0.24939 4.787289,-0.002 L 107.083,179.83182 a 15.639548,15.639548 2.8834987 0 1 7.36805,0.37112 l 6.85019,2.03245 c 2.76017,0.81894 2.7952,0.70023 0.18703,-0.5126 -2.33625,-1.08638 -4.82619,-2.12146 -9.37979,-2.50415 -0.75582,-0.0635 -1.98475,-0.12843 -2.74338,-0.13037 -4.32381,-0.0111 -8.47992,1.00529 -12.605477,2.21858 -1.910709,0.56192 -4.95292,0.44589 -6.841209,-0.1883 -5.737916,-1.9271 -10.334084,-2.6361 -14.664579,-3.06167 -2.81043,-0.27619 -2.865396,0.0882 -0.107249,0.69468 z"
       id="path606"
       sodipodi:nodetypes="ccccccc"
       inkscape:path-effect="#path-effect608"
       inkscape:original-d="m 70.158869,177.62489 c 7.368856,1.71095 15.151468,3.3018 23.207973,4.81316 l 17.445218,-3.3148 15.48692,4.59497 c -5.0824,-1.57215 -6.92972,-4.15358 -15.5608,-4.59123 -6.03794,-0.32803 -11.726639,1.48159 -17.430193,3.22416 -9.842809,-3.84404 -16.391828,-4.17405 -23.149118,-4.72626 z" />
    <g
       id="g899"
       inkscape:label="Pencil"
       transform="matrix(1.0004537,0,0,0.7743508,-0.04854039,21.695601)">
      <path
         id="rect738"
         style="fill:#ffb380;stroke-width:0.295607"
         d="m 124.32264,203.6253 -1.22163,4.62814 5.10357,-0.92759 0.19378,-0.1571 -0.69401,-0.64544 0.007,-0.008 -3.34656,-2.89026 z" />
      <path
         id="rect741"
         style="fill:#000080;stroke-width:0.382668"
         transform="matrix(0.77962076,-0.62625192,0.75674313,0.65371235,0,0)"
         d="m -74.064941,240.57463 h 35.792386 a 2.1950524,2.1950524 45 0 1 2.195052,2.19505 v 0.0186 a 3.1775871,3.1775871 135 0 1 -3.177587,3.17759 h -34.809851 z"
         inkscape:original-d="m -74.064941,240.57463 h 37.987438 v 5.39127 h -37.987438 z"
         inkscape:path-effect="#path-effect893" />
      <path
         id="rect886"
         style="fill:#000000;stroke-width:0.368572"
         d="m -62.351213,233.00473 -0.884981,0.50017 0.884988,0.62976 z"
         transform="rotate(-45.740814)" />
    </g>
  </g>
</svg>
