<?xml version="1.0" encoding="UTF-8" standalone="no"?>
<!-- Created with Inkscape (http://www.inkscape.org/) -->

<svg
   width="79.1185mm"
   height="79.104263mm"
   viewBox="0 0 79.118499 79.104264"
   version="1.1"
   id="svg5"
   inkscape:version="1.2.1 (9c6d41e410, 2022-07-14)"
   sodipodi:docname="dollar.svg"
   xmlns:inkscape="http://www.inkscape.org/namespaces/inkscape"
   xmlns:sodipodi="http://sodipodi.sourceforge.net/DTD/sodipodi-0.dtd"
   xmlns="http://www.w3.org/2000/svg"
   xmlns:svg="http://www.w3.org/2000/svg">
  <sodipodi:namedview
     id="namedview7"
     pagecolor="#505050"
     bordercolor="#eeeeee"
     borderopacity="1"
     inkscape:showpageshadow="0"
     inkscape:pageopacity="0"
     inkscape:pagecheckerboard="0"
     inkscape:deskcolor="#505050"
     inkscape:document-units="mm"
     showgrid="false"
     inkscape:zoom="1"
     inkscape:cx="-65"
     inkscape:cy="179.5"
     inkscape:window-width="1920"
     inkscape:window-height="1001"
     inkscape:window-x="-9"
     inkscape:window-y="-9"
     inkscape:window-maximized="1"
     inkscape:current-layer="layer1" />
  <defs
     id="defs2">
    <inkscape:path-effect
       effect="perspective-envelope"
       up_left_point="56.554053,145.34521"
       up_right_point="121.5,126.7371"
       down_left_point="57.283782,174.89926"
       down_right_point="121.5,157.75061"
       id="path-effect5985"
       is_visible="true"
       lpeversion="1"
       deform_type="perspective"
       horizontal_mirror="false"
       vertical_mirror="false"
       overflow_perspective="false" />
    <inkscape:path-effect
       effect="perspective-envelope"
       up_left_point="56.554053,145.34521"
       up_right_point="121.5,126.7371"
       down_left_point="57.283782,174.89926"
       down_right_point="121.5,157.75061"
       id="path-effect5950"
       is_visible="true"
       lpeversion="1"
       deform_type="perspective"
       horizontal_mirror="false"
       vertical_mirror="false"
       overflow_perspective="false" />
    <inkscape:path-effect
       effect="perspective-envelope"
       up_left_point="56.554053,145.34521"
       up_right_point="121.5,126.7371"
       down_left_point="57.283782,174.89926"
       down_right_point="121.5,157.75061"
       id="path-effect393"
       is_visible="true"
       lpeversion="1"
       deform_type="perspective"
       horizontal_mirror="false"
       vertical_mirror="false"
       overflow_perspective="false" />
  </defs>
  <g
     inkscape:label="Calque 1"
     inkscape:groupmode="layer"
     id="layer1"
     transform="translate(-44.039019,-97.952212)">
    <path
       id="rect236"
       style="fill:#f2f2f2;stroke:#000000;stroke-width:0.5;stroke-dasharray:none"
       d="m 121.40653,157.07095 c -21.11893,6.09972 -42.655367,11.56709 -63.965125,17.25778 -0.115677,0.0308 -0.213639,-0.0173 -0.245463,-0.11007 0.08197,0.37959 0.245463,2.53163 0.245463,2.53163 21.251113,-5.76315 42.636925,-11.28583 63.835015,-17.07997 l 0.006,-0.002 1.25781,-0.3359 c 0.15097,-0.0403 0.27285,-0.18409 0.27285,-0.32246 v -2.42156 c -0.0106,0.027 0.004,0.0579 0.006,0.0868 l 0.0742,-28.41746 c 5.2e-4,-0.19586 -0.0297,-0.41208 -1.04085,-1.35785 -1.94434,-0.59626 -0.56069,1.18632 -0.44587,30.17106 z m 6e-5,0.16232 c 0,0 -1.5856,-0.15099 0,0 z"
       sodipodi:nodetypes="cccccccsccscccc" />
    <path
       id="path389"
       style="fill:#85bb65;fill-opacity:1;stroke:#000000;stroke-width:0.5;stroke-dasharray:none"
       d="m 56.807885,145.27248 64.416345,-18.45637 c 0.15276,-0.0438 0.27577,0.035 0.27577,0.17665 v 30.5081 c 0,0.13837 -0.12157,0.28221 -0.27255,0.32253 L 57.534882,174.8322 c -0.13912,0.0372 -0.253722,-0.0391 -0.256979,-0.17105 l -0.717837,-29.07242 c -0.0033,-0.13491 0.107186,-0.27595 0.247819,-0.31625 z"
       inkscape:original-d="m 58.272145,134.39926 h 62.969225 c 0.14328,0 0.25863,0.11535 0.25863,0.25864 v 31.22597 c 0,0.14328 -0.11535,0.25863 -0.25863,0.25863 H 58.272145 c -0.143283,0 -0.258633,-0.11535 -0.258633,-0.25863 V 134.6579 c 0,-0.14329 0.11535,-0.25864 0.258633,-0.25864 z"
       inkscape:path-effect="#path-effect393" />
    <text
       xml:space="preserve"
       style="font-size:4.69504px;fill:#00ff00;stroke:#000000;stroke-width:0.391254"
       x="148.91789"
       y="128.0531"
       id="text624"
       transform="matrix(0.75118766,-0.22573998,0.00160871,1.3307418,0,0)"><tspan
         sodipodi:role="line"
         id="tspan622"
         style="stroke-width:0.391254"
         x="148.91789"
         y="128.0531">100</tspan></text>
    <text
       xml:space="preserve"
       style="font-size:4.69504px;fill:#00ff00;stroke:#000000;stroke-width:0.391254"
       x="93.42482"
       y="141.35611"
       id="text1182"
       transform="matrix(0.76414938,-0.17696664,-0.08396972,1.3280909,0,0)"><tspan
         sodipodi:role="line"
         id="tspan1180"
         style="stroke-width:0.391254"
         x="93.42482"
         y="141.35611">100</tspan></text>
    <circle
       style="fill:#f2f2f2;stroke:#000000;stroke-width:0.5;stroke-dasharray:none"
       id="path2016"
       cx="89.029984"
       cy="151.63857"
       r="9.223444" />
    <text
       xml:space="preserve"
       style="font-size:9.94376px;fill:#00ff00;stroke:#000000;stroke-width:0.828645"
       x="51.421532"
       y="170.08905"
       id="text1912"
       transform="rotate(-12.346406)"
       inkscape:transform-center-x="-1.8493839"
       inkscape:transform-center-y="2.5161986"><tspan
         sodipodi:role="line"
         id="tspan1910"
         style="stroke-width:0.828645"
         x="51.421532"
         y="170.08905">$</tspan></text>
    <g
       id="g5961"
       inkscape:transform-center-x="-27.566294"
       inkscape:transform-center-y="-20.69318"
       transform="rotate(-19.61118,56.918285,162.13122)">
      <path
         id="path5930"
         style="fill:#f2f2f2;stroke:#000000;stroke-width:0.5;stroke-dasharray:none"
         d="m 121.40653,157.07095 c -21.11893,6.09972 -42.655367,11.56709 -63.965125,17.25778 -0.115677,0.0308 -0.213639,-0.0173 -0.245463,-0.11007 0.08197,0.37959 0.245463,2.53163 0.245463,2.53163 21.251113,-5.76315 42.636925,-11.28583 63.835015,-17.07997 l 0.006,-0.002 1.25781,-0.3359 c 0.15097,-0.0403 0.27285,-0.18409 0.27285,-0.32246 v -2.42156 c -0.0106,0.027 0.004,0.0579 0.006,0.0868 l 0.0742,-28.41746 c 5.2e-4,-0.19586 -0.0297,-0.41208 -1.04085,-1.35785 -1.94434,-0.59626 -0.56069,1.18632 -0.44587,30.17106 z m 6e-5,0.16232 c 0,0 -1.5856,-0.15099 0,0 z"
         sodipodi:nodetypes="cccccccsccscccc"
         inkscape:transform-center-x="-32.597162"
         inkscape:transform-center-y="-21.990431" />
      <path
         id="path5932"
         style="fill:#85bb65;fill-opacity:1;stroke:#000000;stroke-width:0.5;stroke-dasharray:none"
         d="m 56.807885,145.27248 64.416345,-18.45637 c 0.15276,-0.0438 0.27577,0.035 0.27577,0.17665 v 30.5081 c 0,0.13837 -0.12157,0.28221 -0.27255,0.32253 L 57.534882,174.8322 c -0.13912,0.0372 -0.253722,-0.0391 -0.256979,-0.17105 l -0.717837,-29.07242 c -0.0033,-0.13491 0.107186,-0.27595 0.247819,-0.31625 z"
         inkscape:original-d="m 58.272145,134.39926 h 62.969225 c 0.14328,0 0.25863,0.11535 0.25863,0.25864 v 31.22597 c 0,0.14328 -0.11535,0.25863 -0.25863,0.25863 H 58.272145 c -0.143283,0 -0.258633,-0.11535 -0.258633,-0.25863 V 134.6579 c 0,-0.14329 0.11535,-0.25864 0.258633,-0.25864 z"
         inkscape:path-effect="#path-effect5950"
         inkscape:transform-center-x="-31.582545"
         inkscape:transform-center-y="-22.950074" />
      <text
         xml:space="preserve"
         style="font-size:4.69504px;fill:#00ff00;stroke:#000000;stroke-width:0.391254"
         x="148.91789"
         y="128.0531"
         id="text5936"
         transform="matrix(0.75118766,-0.22573998,0.00160871,1.3307418,0,0)"
         inkscape:transform-center-x="-58.107521"
         inkscape:transform-center-y="-40.348719"><tspan
           sodipodi:role="line"
           id="tspan5934"
           style="stroke-width:0.391254"
           x="148.91789"
           y="128.0531">100</tspan></text>
      <text
         xml:space="preserve"
         style="font-size:4.69504px;fill:#00ff00;stroke:#000000;stroke-width:0.391254"
         x="93.42482"
         y="141.35611"
         id="text5940"
         transform="matrix(0.76414938,-0.17696664,-0.08396972,1.3280909,0,0)"
         inkscape:transform-center-x="-5.7661823"
         inkscape:transform-center-y="-5.7059437"><tspan
           sodipodi:role="line"
           id="tspan5938"
           style="stroke-width:0.391254"
           x="93.42482"
           y="141.35611">100</tspan></text>
      <circle
         style="fill:#f2f2f2;stroke:#000000;stroke-width:0.5;stroke-dasharray:none"
         id="circle5942"
         cx="89.029984"
         cy="151.63857"
         r="9.223444"
         inkscape:transform-center-x="-31.582532"
         inkscape:transform-center-y="-22.134323" />
      <text
         xml:space="preserve"
         style="font-size:9.94376px;fill:#00ff00;stroke:#000000;stroke-width:0.828645"
         x="51.421532"
         y="170.08905"
         id="text5946"
         transform="rotate(-12.346406)"
         inkscape:transform-center-x="-31.641431"
         inkscape:transform-center-y="-22.176585"><tspan
           sodipodi:role="line"
           id="tspan5944"
           style="stroke-width:0.828645"
           x="51.421532"
           y="170.08905">$</tspan></text>
    </g>
    <g
       id="g5981"
       inkscape:transform-center-x="-12.108834"
       inkscape:transform-center-y="-36.715143"
       transform="rotate(-34.811187,58.808216,167.68131)">
      <path
         id="path5963"
         style="fill:#f2f2f2;stroke:#000000;stroke-width:0.5;stroke-dasharray:none"
         d="m 121.40653,157.07095 c -21.11893,6.09972 -42.655367,11.56709 -63.965125,17.25778 -0.115677,0.0308 -0.213639,-0.0173 -0.245463,-0.11007 0.08197,0.37959 0.245463,2.53163 0.245463,2.53163 21.251113,-5.76315 42.636925,-11.28583 63.835015,-17.07997 l 0.006,-0.002 1.25781,-0.3359 c 0.15097,-0.0403 0.27285,-0.18409 0.27285,-0.32246 v -2.42156 c -0.0106,0.027 0.004,0.0579 0.006,0.0868 l 0.0742,-28.41746 c 5.2e-4,-0.19586 -0.0297,-0.41208 -1.04085,-1.35785 -1.94434,-0.59626 -0.56069,1.18632 -0.44587,30.17106 z m 6e-5,0.16232 c 0,0 -1.5856,-0.15099 0,0 z"
         sodipodi:nodetypes="cccccccsccscccc"
         inkscape:transform-center-x="-32.597162"
         inkscape:transform-center-y="-21.990431" />
      <path
         id="path5965"
         style="fill:#85bb65;fill-opacity:1;stroke:#000000;stroke-width:0.5;stroke-dasharray:none"
         d="m 56.807885,145.27248 64.416345,-18.45637 c 0.15276,-0.0438 0.27577,0.035 0.27577,0.17665 v 30.5081 c 0,0.13837 -0.12157,0.28221 -0.27255,0.32253 L 57.534882,174.8322 c -0.13912,0.0372 -0.253722,-0.0391 -0.256979,-0.17105 l -0.717837,-29.07242 c -0.0033,-0.13491 0.107186,-0.27595 0.247819,-0.31625 z"
         inkscape:original-d="m 58.272145,134.39926 h 62.969225 c 0.14328,0 0.25863,0.11535 0.25863,0.25864 v 31.22597 c 0,0.14328 -0.11535,0.25863 -0.25863,0.25863 H 58.272145 c -0.143283,0 -0.258633,-0.11535 -0.258633,-0.25863 V 134.6579 c 0,-0.14329 0.11535,-0.25864 0.258633,-0.25864 z"
         inkscape:path-effect="#path-effect5985"
         inkscape:transform-center-x="-31.582545"
         inkscape:transform-center-y="-22.950074" />
      <text
         xml:space="preserve"
         style="font-size:4.69504px;fill:#00ff00;stroke:#000000;stroke-width:0.391254"
         x="148.91789"
         y="128.0531"
         id="text5969"
         transform="matrix(0.75118766,-0.22573998,0.00160871,1.3307418,0,0)"
         inkscape:transform-center-x="-58.107521"
         inkscape:transform-center-y="-40.348719"><tspan
           sodipodi:role="line"
           id="tspan5967"
           style="stroke-width:0.391254"
           x="148.91789"
           y="128.0531">100</tspan></text>
      <text
         xml:space="preserve"
         style="font-size:4.69504px;fill:#00ff00;stroke:#000000;stroke-width:0.391254"
         x="93.42482"
         y="141.35611"
         id="text5973"
         transform="matrix(0.76414938,-0.17696664,-0.08396972,1.3280909,0,0)"
         inkscape:transform-center-x="-5.7661823"
         inkscape:transform-center-y="-5.7059437"><tspan
           sodipodi:role="line"
           id="tspan5971"
           style="stroke-width:0.391254"
           x="93.42482"
           y="141.35611">100</tspan></text>
      <circle
         style="fill:#f2f2f2;stroke:#000000;stroke-width:0.5;stroke-dasharray:none"
         id="circle5975"
         cx="89.029984"
         cy="151.63857"
         r="9.223444"
         inkscape:transform-center-x="-31.582532"
         inkscape:transform-center-y="-22.134323" />
      <text
         xml:space="preserve"
         style="font-size:9.94376px;fill:#00ff00;stroke:#000000;stroke-width:0.828645"
         x="51.421532"
         y="170.08905"
         id="text5979"
         transform="rotate(-12.346406)"
         inkscape:transform-center-x="-31.641431"
         inkscape:transform-center-y="-22.176585"><tspan
           sodipodi:role="line"
           id="tspan5977"
           style="stroke-width:0.828645"
           x="51.421532"
           y="170.08905">$</tspan></text>
    </g>
  </g>
</svg>
