<?xml version="1.0" encoding="UTF-8" standalone="no"?>
<!-- Created with Inkscape (http://www.inkscape.org/) -->

<svg
   width="116.36893mm"
   height="69.977524mm"
   viewBox="0 0 116.36893 69.977524"
   version="1.1"
   id="svg5"
   sodipodi:docname="mail.svg"
   inkscape:version="1.2.1 (9c6d41e410, 2022-07-14)"
   xmlns:inkscape="http://www.inkscape.org/namespaces/inkscape"
   xmlns:sodipodi="http://sodipodi.sourceforge.net/DTD/sodipodi-0.dtd"
   xmlns="http://www.w3.org/2000/svg"
   xmlns:svg="http://www.w3.org/2000/svg">
  <sodipodi:namedview
     id="namedview7"
     pagecolor="#505050"
     bordercolor="#eeeeee"
     borderopacity="1"
     inkscape:showpageshadow="0"
     inkscape:pageopacity="0"
     inkscape:pagecheckerboard="0"
     inkscape:deskcolor="#505050"
     inkscape:document-units="mm"
     showgrid="false"
     inkscape:zoom="1.4503086"
     inkscape:cx="400.60438"
     inkscape:cy="143.07299"
     inkscape:window-width="1920"
     inkscape:window-height="1001"
     inkscape:window-x="-9"
     inkscape:window-y="-9"
     inkscape:window-maximized="1"
     inkscape:current-layer="layer1" />
  <defs
     id="defs2" />
  <g
     inkscape:label="Calque 1"
     inkscape:groupmode="layer"
     id="layer1"
     transform="translate(-48.372691,-93.876044)">
    <ellipse
       style="fill:#ff00ff;stroke:#89daff;stroke-width:1;stroke-dasharray:none"
       id="path3389"
       cx="105.99324"
       cy="125.39949"
       rx="0.36486486"
       ry="0.20523648" />
    <path
       id="path7106"
       style="fill:#89daff;stroke:#000000;stroke-width:2;stroke-dasharray:none;stroke-opacity:1;fill-opacity:1"
       d="m 50.223226,94.875987 c -0.177943,0 -0.321427,0.13894 -0.321427,0.31161 v 67.354543 c 0,0.17266 0.143484,0.31161 0.321427,0.31161 H 162.8086 c 0.17794,0 0.32143,-0.13895 0.32143,-0.31161 V 95.187597 c 0,-0.17267 -0.14349,-0.31161 -0.32143,-0.31161 z m 2.762106,0.37827 107.070988,0.52555 -53.53782,38.931473 z" />
    <path
       id="path3449"
       style="fill:#89daff;stroke:#000000;stroke-width:1.99169;stroke-dasharray:none;stroke-opacity:1;fill-opacity:1"
       d="m 158.29597,95.16265 0.002,0.222756 v 0 z m -42.48904,32.40928 -19.559107,0.0472 -43.848727,35.03412 109.400494,0.17801 z"
       sodipodi:nodetypes="ccccccccc" />
    <path
       id="path7103"
       style="fill:#89daff;stroke:#000000;stroke-width:2;stroke-dasharray:none;stroke-opacity:1;fill-opacity:1"
       d="M 52.456163 95.254254 L 105.98933 134.71128 L 159.52715 95.779804 L 52.456163 95.254254 z " />
  </g>
</svg>
