<?xml version="1.0" encoding="UTF-8" standalone="no"?>
<!-- Created with Inkscape (http://www.inkscape.org/) -->

<svg
   width="32mm"
   height="32mm"
   viewBox="0 0 31.999999 32"
   version="1.1"
   id="svg8949"
   inkscape:version="1.2.1 (9c6d41e410, 2022-07-14)"
   sodipodi:docname="marker.svg"
   xmlns:inkscape="http://www.inkscape.org/namespaces/inkscape"
   xmlns:sodipodi="http://sodipodi.sourceforge.net/DTD/sodipodi-0.dtd"
   xmlns="http://www.w3.org/2000/svg"
   xmlns:svg="http://www.w3.org/2000/svg">
  <sodipodi:namedview
     id="namedview8951"
     pagecolor="#505050"
     bordercolor="#eeeeee"
     borderopacity="1"
     inkscape:showpageshadow="0"
     inkscape:pageopacity="0"
     inkscape:pagecheckerboard="0"
     inkscape:deskcolor="#505050"
     inkscape:document-units="mm"
     showgrid="false"
     inkscape:zoom="2.0510461"
     inkscape:cx="-214.52468"
     inkscape:cy="81.665644"
     inkscape:window-width="1920"
     inkscape:window-height="1001"
     inkscape:window-x="-9"
     inkscape:window-y="-9"
     inkscape:window-maximized="1"
     inkscape:current-layer="layer1" />
  <defs
     id="defs8946" />
  <g
     inkscape:label="Calque 1"
     inkscape:groupmode="layer"
     id="layer1"
     transform="translate(-128.82091,-98.16126)">
    <path
       id="path5902"
       style="fill:#89daff;fill-opacity:1;stroke:#000000;stroke-width:0.8;stroke-dasharray:none;stroke-opacity:1"
       d="m 144.73374,99.572253 c -5.08814,-1.8e-5 -9.21289,4.124737 -9.21287,9.212867 0.002,1.74573 0.50047,3.45488 1.4366,4.92839 l 7.79332,14.96033 7.72046,-14.88954 c 0.96276,-1.48963 1.47505,-3.22551 1.47536,-4.99918 2e-5,-5.08813 -4.12474,-9.212885 -9.21287,-9.212867 z m 0,3.109367 a 3.9993787,3.9993787 0 0 1 3.99924,3.99976 3.9993787,3.9993787 0 0 1 -3.99924,3.99924 3.9993787,3.9993787 0 0 1 -3.99924,-3.99924 3.9993787,3.9993787 0 0 1 3.99924,-3.99976 z" />
  </g>
</svg>
